<svg xmlns="http://www.w3.org/2000/svg" xmlns:xlink="http://www.w3.org/1999/xlink" width="840" height="928.4"><rect width="840" height="928.4" rx="5" ry="5" class="a"/><svg y="0%" x="0%"><circle cx="20" cy="20" r="6" fill="#ff5f58"/><circle cx="40" cy="20" r="6" fill="#ffbd2e"/><circle cx="60" cy="20" r="6" fill="#18c132"/></svg><svg height="868.4" viewBox="0 0 80 86.84" width="800" x="15" xmlns="http://www.w3.org/2000/svg" xmlns:xlink="http://www.w3.org/1999/xlink" y="50"><style>@keyframes n{0%{transform:translateX(0)}6.2%{transform:translateX(-160px)}6.5%{transform:translateX(-320px)}9%{transform:translateX(-400px)}9.6%{transform:translateX(-480px)}10.8%{transform:translateX(-560px)}14.4%{transform:translateX(-640px)}16%{transform:translateX(-880px)}16.8%{transform:translateX(-1120px)}26.5%{transform:translateX(-1200px)}27.2%{transform:translateX(-1280px)}28.2%{transform:translateX(-1360px)}28.7%{transform:translateX(-1440px)}29.2%{transform:translateX(-1520px)}30.4%{transform:translateX(-1600px)}30.9%{transform:translateX(-1680px)}34.4%{transform:translateX(-1760px)}36.1%{transform:translateX(-1840px)}37.3%{transform:translateX(-1920px)}37.8%{transform:translateX(-2000px)}39.7%{transform:translateX(-2080px)}44.4%{transform:translateX(-2160px)}49%{transform:translateX(-2240px)}51.8%{transform:translateX(-2320px)}51.9%{transform:translateX(-2560px)}63%{transform:translateX(-2800px)}64.4%{transform:translateX(-3040px)}64.7%{transform:translateX(-3200px)}65.6%{transform:translateX(-3360px)}65.7%{transform:translateX(-3440px)}66%{transform:translateX(-3600px)}71.7%{transform:translateX(-3680px)}72.5%{transform:translateX(-3760px)}73.3%{transform:translateX(-3840px)}74%{transform:translateX(-3920px)}74.5%{transform:translateX(-4000px)}78.4%{transform:translateX(-4080px)}79.5%{transform:translateX(-4160px)}80.3%{transform:translateX(-4240px)}80.9%{transform:translateX(-4320px)}82%{transform:translateX(-4400px)}82.5%{transform:translateX(-4480px)}85%{transform:translateX(-4720px)}85.1%{transform:translateX(-5120px)}85.4%{transform:translateX(-5360px)}to{transform:translateX(-5440px)}}.a{fill:#282d35}.f,.g{fill:#a8cc8c;font-weight:700}.g{fill:#66c2cd}.h{fill:#b9c0cb}.k{fill:#e88388;font-weight:700}</style><g font-size="1.67" font-family="Monaco,Consolas,Menlo,'Bitstream Vera Sans Mono','Powerline Symbols',monospace"><defs><symbol id="8"><text y="1.67" class="k">➜</text><text x="3.006" y="1.67" class="g">Documents</text></symbol><symbol id="1"><text y="1.67" class="f">➜</text><text x="3.006" y="1.67" class="g">Documents</text></symbol><symbol id="3"><text y="1.67" class="h">&gt;</text></symbol><symbol id="4"><text y="1.67" class="h">&gt;</text><text x="2.004" y="1.67" class="h">console.log(0)</text></symbol><symbol id="5"><text y="1.67" fill="#dbab79">0</text></symbol><symbol id="6"><text y="1.67" fill="#6f7783">undefined</text></symbol><symbol id="7"><text y="1.67" class="h">(To</text><text x="4.008" y="1.67" class="h">exit,</text><text x="10.02" y="1.67" class="h">press</text><text x="16.032" y="1.67" class="h">^C</text><text x="19.038" y="1.67" class="h">again</text><text x="25.05" y="1.67" class="h">or</text><text x="28.056" y="1.67" class="h">type</text><text x="33.066" y="1.67" class="h">.exit)</text></symbol><symbol id="2"><text y="1.67" class="f">➜</text><text x="3.006" y="1.67" class="g">Documents</text><text x="13.026" y="1.67" class="h">node</text></symbol><symbol id="9"><text y="1.67" class="k">➜</text><text x="3.006" y="1.67" class="g">Documents</text><text x="13.026" y="1.67" class="h">cl</text></symbol><symbol id="10"><text y="1.67" class="k">➜</text><text x="3.006" y="1.67" class="g">Documents</text><text x="13.026" y="1.67" class="h">clr</text></symbol><symbol id="11"><text y="1.67" class="k">➜</text><text x="3.006" y="1.67" class="g">Documents</text><text x="13.026" y="1.67" class="h">clre</text></symbol><symbol id="12"><text y="1.67" class="k">➜</text><text x="3.006" y="1.67" class="g">Documents</text><text x="13.026" y="1.67" class="h">clear</text></symbol><symbol id="a"><path fill="transparent" d="M0 0h80v41H0z"/></symbol><symbol id="b"><path fill="#6f7683" d="M0 0h1.102v2.171H0z"/></symbol></defs><path class="a" d="M0 0h80v86.84H0z"/><g style="animation-duration:14.248906s;animation-iteration-count:infinite;animation-name:n;animation-timing-function:steps(1,end)"><svg width="5520"><svg><use xlink:href="#a"/><use xlink:href="#b" x="-.004"/></svg><svg x="80"><use xlink:href="#a"/><use xlink:href="#b" x="-.004"/></svg><svg x="160"><use xlink:href="#a"/><use xlink:href="#b" x="-.004"/></svg><svg x="240"><use xlink:href="#a"/><use xlink:href="#b" x="12.996"/><use xlink:href="#1"/></svg><svg x="320"><use xlink:href="#a"/><use xlink:href="#b" x="12.996"/><use xlink:href="#1"/></svg><svg x="400"><use xlink:href="#a"/><use xlink:href="#b" x="13.996"/><text y="1.67" class="f">➜</text><text x="3.006" y="1.67" class="g">Documents</text><text x="13.026" y="1.67" class="h">n</text></svg><svg x="480"><use xlink:href="#a"/><use xlink:href="#b" x="14.996"/><text y="1.67" class="f">➜</text><text x="3.006" y="1.67" class="g">Documents</text><text x="13.026" y="1.67" class="h">no</text></svg><svg x="560"><use xlink:href="#a"/><use xlink:href="#b" x="15.996"/><text y="1.67" class="f">➜</text><text x="3.006" y="1.67" class="g">Documents</text><text x="13.026" y="1.67" class="h">nod</text></svg><svg x="640"><use xlink:href="#a"/><use xlink:href="#b" x="16.996"/><use xlink:href="#2"/></svg><svg x="720"><use xlink:href="#a"/><use xlink:href="#b" x="16.996"/><use xlink:href="#2"/></svg><svg x="800"><use xlink:href="#a"/><use xlink:href="#b" x="-.004" y="2.146"/><use xlink:href="#2"/></svg><svg x="880"><use xlink:href="#a"/><use xlink:href="#b" x="-.004" y="2.146"/><use xlink:href="#2"/></svg><svg x="960"><use xlink:href="#a"/><use xlink:href="#b" x="-.004" y="2.146"/><use xlink:href="#2"/></svg><svg x="1040"><use xlink:href="#a"/><use xlink:href="#b" x="-.004" y="2.146"/><use xlink:href="#2"/></svg><svg x="1120"><use xlink:href="#a"/><use xlink:href="#b" x="1.996" y="2.146"/><use xlink:href="#2"/><use xlink:href="#3" y="2.171"/></svg><svg x="1200"><use xlink:href="#a"/><use xlink:href="#b" x="2.996" y="2.146"/><use xlink:href="#2"/><text y="3.841" class="h">&gt;</text><text x="2.004" y="3.841" class="h">c</text></svg><svg x="1280"><use xlink:href="#a"/><use xlink:href="#b" x="3.996" y="2.146"/><use xlink:href="#2"/><text y="3.841" class="h">&gt;</text><text x="2.004" y="3.841" class="h">co</text></svg><svg x="1360"><use xlink:href="#a"/><use xlink:href="#b" x="4.996" y="2.146"/><use xlink:href="#2"/><text y="3.841" class="h">&gt;</text><text x="2.004" y="3.841" class="h">con</text></svg><svg x="1440"><use xlink:href="#a"/><use xlink:href="#b" x="5.996" y="2.146"/><use xlink:href="#2"/><text y="3.841" class="h">&gt;</text><text x="2.004" y="3.841" class="h">cons</text></svg><svg x="1520"><use xlink:href="#a"/><use xlink:href="#b" x="6.996" y="2.146"/><use xlink:href="#2"/><text y="3.841" class="h">&gt;</text><text x="2.004" y="3.841" class="h">conso</text></svg><svg x="1600"><use xlink:href="#a"/><use xlink:href="#b" x="7.996" y="2.146"/><use xlink:href="#2"/><text y="3.841" class="h">&gt;</text><text x="2.004" y="3.841" class="h">consol</text></svg><svg x="1680"><use xlink:href="#a"/><use xlink:href="#b" x="8.996" y="2.146"/><use xlink:href="#2"/><text y="3.841" class="h">&gt;</text><text x="2.004" y="3.841" class="h">console</text></svg><svg x="1760"><use xlink:href="#a"/><use xlink:href="#b" x="9.996" y="2.146"/><use xlink:href="#2"/><text y="3.841" class="h">&gt;</text><text x="2.004" y="3.841" class="h">console.</text></svg><svg x="1840"><use xlink:href="#a"/><use xlink:href="#b" x="10.996" y="2.146"/><use xlink:href="#2"/><text y="3.841" class="h">&gt;</text><text x="2.004" y="3.841" class="h">console.l</text></svg><svg x="1920"><use xlink:href="#a"/><use xlink:href="#b" x="11.996" y="2.146"/><use xlink:href="#2"/><text y="3.841" class="h">&gt;</text><text x="2.004" y="3.841" class="h">console.lo</text></svg><svg x="2000"><use xlink:href="#a"/><use xlink:href="#b" x="12.996" y="2.146"/><use xlink:href="#2"/><text y="3.841" class="h">&gt;</text><text x="2.004" y="3.841" class="h">console.log</text></svg><svg x="2080"><use xlink:href="#a"/><use xlink:href="#b" x="13.996" y="2.146"/><use xlink:href="#2"/><text y="3.841" class="h">&gt;</text><text x="2.004" y="3.841" class="h">console.log(</text></svg><svg x="2160"><use xlink:href="#a"/><use xlink:href="#b" x="14.996" y="2.146"/><use xlink:href="#2"/><text y="3.841" class="h">&gt;</text><text x="2.004" y="3.841" class="h">console.log(0</text></svg><svg x="2240"><use xlink:href="#a"/><use xlink:href="#b" x="15.996" y="2.146"/><use xlink:href="#2"/><use xlink:href="#4" y="2.171"/></svg><svg x="2320"><use xlink:href="#a"/><use xlink:href="#b" x="-.004" y="4.317"/><use xlink:href="#2"/><use xlink:href="#4" y="2.171"/></svg><svg x="2400"><use xlink:href="#a"/><use xlink:href="#b" x="-.004" y="6.488"/><use xlink:href="#2"/><use xlink:href="#4" y="2.171"/><use xlink:href="#5" y="4.342"/></svg><svg x="2480"><use xlink:href="#a"/><use xlink:href="#b" x="-.004" y="8.659"/><use xlink:href="#2"/><use xlink:href="#4" y="2.171"/><use xlink:href="#5" y="4.342"/><use xlink:href="#6" y="6.513"/></svg><svg x="2560"><use xlink:href="#a"/><use xlink:href="#b" x="1.996" y="8.659"/><use xlink:href="#2"/><use xlink:href="#4" y="2.171"/><use xlink:href="#5" y="4.342"/><use xlink:href="#6" y="6.513"/><use xlink:href="#3" y="8.684"/></svg><svg x="2640"><use xlink:href="#a"/><use xlink:href="#b" x="-.004" y="10.83"/><use xlink:href="#2"/><use xlink:href="#4" y="2.171"/><use xlink:href="#5" y="4.342"/><use xlink:href="#6" y="6.513"/><use xlink:href="#3" y="8.684"/></svg><svg x="2720"><use xlink:href="#a"/><use xlink:href="#b" x="-.004" y="13.001"/><use xlink:href="#2"/><use xlink:href="#4" y="2.171"/><use xlink:href="#5" y="4.342"/><use xlink:href="#6" y="6.513"/><use xlink:href="#3" y="8.684"/><use xlink:href="#7" y="10.855"/></svg><svg x="2800"><use xlink:href="#a"/><use xlink:href="#b" x="1.996" y="13.001"/><use xlink:href="#2"/><use xlink:href="#4" y="2.171"/><use xlink:href="#5" y="4.342"/><use xlink:href="#6" y="6.513"/><use xlink:href="#3" y="8.684"/><use xlink:href="#7" y="10.855"/><use xlink:href="#3" y="13.026"/></svg><svg x="2880"><use xlink:href="#a"/><use xlink:href="#b" x="-.004" y="15.172"/><use xlink:href="#2"/><use xlink:href="#4" y="2.171"/><use xlink:href="#5" y="4.342"/><use xlink:href="#6" y="6.513"/><use xlink:href="#3" y="8.684"/><use xlink:href="#7" y="10.855"/><use xlink:href="#3" y="13.026"/></svg><svg x="2960"><use xlink:href="#a"/><use xlink:href="#b" x="-.004" y="15.172"/><use xlink:href="#2"/><use xlink:href="#4" y="2.171"/><use xlink:href="#5" y="4.342"/><use xlink:href="#6" y="6.513"/><use xlink:href="#3" y="8.684"/><use xlink:href="#7" y="10.855"/><use xlink:href="#3" y="13.026"/></svg><svg x="3040"><use xlink:href="#a"/><use xlink:href="#b" x="-.004" y="15.172"/><use xlink:href="#2"/><use xlink:href="#4" y="2.171"/><use xlink:href="#5" y="4.342"/><use xlink:href="#6" y="6.513"/><use xlink:href="#3" y="8.684"/><use xlink:href="#7" y="10.855"/><use xlink:href="#3" y="13.026"/></svg><svg x="3120"><use xlink:href="#a"/><use xlink:href="#b" x="12.996" y="15.172"/><use xlink:href="#2"/><use xlink:href="#4" y="2.171"/><use xlink:href="#5" y="4.342"/><use xlink:href="#6" y="6.513"/><use xlink:href="#3" y="8.684"/><use xlink:href="#7" y="10.855"/><use xlink:href="#3" y="13.026"/><use xlink:href="#1" y="15.197"/></svg><svg x="3200"><use xlink:href="#a"/><use xlink:href="#b" x="12.996" y="15.172"/><use xlink:href="#2"/><use xlink:href="#4" y="2.171"/><use xlink:href="#5" y="4.342"/><use xlink:href="#6" y="6.513"/><use xlink:href="#3" y="8.684"/><use xlink:href="#7" y="10.855"/><use xlink:href="#3" y="13.026"/><use xlink:href="#1" y="15.197"/></svg><svg x="3280"><use xlink:href="#a"/><use xlink:href="#b" x="-.004" y="17.343"/><use xlink:href="#2"/><use xlink:href="#4" y="2.171"/><use xlink:href="#5" y="4.342"/><use xlink:href="#6" y="6.513"/><use xlink:href="#3" y="8.684"/><use xlink:href="#7" y="10.855"/><use xlink:href="#3" y="13.026"/><use xlink:href="#1" y="15.197"/></svg><svg x="3360"><use xlink:href="#a"/><use xlink:href="#b" x="-.004" y="17.343"/><use xlink:href="#2"/><use xlink:href="#4" y="2.171"/><use xlink:href="#5" y="4.342"/><use xlink:href="#6" y="6.513"/><use xlink:href="#3" y="8.684"/><use xlink:href="#7" y="10.855"/><use xlink:href="#3" y="13.026"/><use xlink:href="#1" y="15.197"/></svg><svg x="3440"><use xlink:href="#a"/><use xlink:href="#b" x="-.004" y="17.343"/><use xlink:href="#2"/><use xlink:href="#4" y="2.171"/><use xlink:href="#5" y="4.342"/><use xlink:href="#6" y="6.513"/><use xlink:href="#3" y="8.684"/><use xlink:href="#7" y="10.855"/><use xlink:href="#3" y="13.026"/><use xlink:href="#1" y="15.197"/></svg><svg x="3520"><use xlink:href="#a"/><use xlink:href="#b" x="12.996" y="17.343"/><use xlink:href="#2"/><use xlink:href="#4" y="2.171"/><use xlink:href="#5" y="4.342"/><use xlink:href="#6" y="6.513"/><use xlink:href="#3" y="8.684"/><use xlink:href="#7" y="10.855"/><use xlink:href="#3" y="13.026"/><use xlink:href="#1" y="15.197"/><use xlink:href="#8" y="17.368"/></svg><svg x="3600"><use xlink:href="#a"/><use xlink:href="#b" x="12.996" y="17.343"/><use xlink:href="#2"/><use xlink:href="#4" y="2.171"/><use xlink:href="#5" y="4.342"/><use xlink:href="#6" y="6.513"/><use xlink:href="#3" y="8.684"/><use xlink:href="#7" y="10.855"/><use xlink:href="#3" y="13.026"/><use xlink:href="#1" y="15.197"/><use xlink:href="#8" y="17.368"/></svg><svg x="3680"><use xlink:href="#a"/><use xlink:href="#b" x="13.996" y="17.343"/><use xlink:href="#2"/><use xlink:href="#4" y="2.171"/><use xlink:href="#5" y="4.342"/><use xlink:href="#6" y="6.513"/><use xlink:href="#3" y="8.684"/><use xlink:href="#7" y="10.855"/><use xlink:href="#3" y="13.026"/><use xlink:href="#1" y="15.197"/><text y="19.038" class="k">➜</text><text x="3.006" y="19.038" class="g">Documents</text><text x="13.026" y="19.038" class="h">c</text></svg><svg x="3760"><use xlink:href="#a"/><use xlink:href="#b" x="14.996" y="17.343"/><use xlink:href="#2"/><use xlink:href="#4" y="2.171"/><use xlink:href="#5" y="4.342"/><use xlink:href="#6" y="6.513"/><use xlink:href="#3" y="8.684"/><use xlink:href="#7" y="10.855"/><use xlink:href="#3" y="13.026"/><use xlink:href="#1" y="15.197"/><use xlink:href="#9" y="17.368"/></svg><svg x="3840"><use xlink:href="#a"/><use xlink:href="#b" x="15.996" y="17.343"/><use xlink:href="#2"/><use xlink:href="#4" y="2.171"/><use xlink:href="#5" y="4.342"/><use xlink:href="#6" y="6.513"/><use xlink:href="#3" y="8.684"/><use xlink:href="#7" y="10.855"/><use xlink:href="#3" y="13.026"/><use xlink:href="#1" y="15.197"/><use xlink:href="#10" y="17.368"/></svg><svg x="3920"><use xlink:href="#a"/><use xlink:href="#b" x="16.996" y="17.343"/><use xlink:href="#2"/><use xlink:href="#4" y="2.171"/><use xlink:href="#5" y="4.342"/><use xlink:href="#6" y="6.513"/><use xlink:href="#3" y="8.684"/><use xlink:href="#7" y="10.855"/><use xlink:href="#3" y="13.026"/><use xlink:href="#1" y="15.197"/><use xlink:href="#11" y="17.368"/></svg><svg x="4000"><use xlink:href="#a"/><use xlink:href="#b" x="17.996" y="17.343"/><use xlink:href="#2"/><use xlink:href="#4" y="2.171"/><use xlink:href="#5" y="4.342"/><use xlink:href="#6" y="6.513"/><use xlink:href="#3" y="8.684"/><use xlink:href="#7" y="10.855"/><use xlink:href="#3" y="13.026"/><use xlink:href="#1" y="15.197"/><text y="19.038" class="k">➜</text><text x="3.006" y="19.038" class="g">Documents</text><text x="13.026" y="19.038" class="h">clrea</text></svg><svg x="4080"><use xlink:href="#a"/><use xlink:href="#b" x="16.996" y="17.343"/><use xlink:href="#2"/><use xlink:href="#4" y="2.171"/><use xlink:href="#5" y="4.342"/><use xlink:href="#6" y="6.513"/><use xlink:href="#3" y="8.684"/><use xlink:href="#7" y="10.855"/><use xlink:href="#3" y="13.026"/><use xlink:href="#1" y="15.197"/><use xlink:href="#11" y="17.368"/></svg><svg x="4160"><use xlink:href="#a"/><use xlink:href="#b" x="15.996" y="17.343"/><use xlink:href="#2"/><use xlink:href="#4" y="2.171"/><use xlink:href="#5" y="4.342"/><use xlink:href="#6" y="6.513"/><use xlink:href="#3" y="8.684"/><use xlink:href="#7" y="10.855"/><use xlink:href="#3" y="13.026"/><use xlink:href="#1" y="15.197"/><use xlink:href="#10" y="17.368"/></svg><svg x="4240"><use xlink:href="#a"/><use xlink:href="#b" x="14.996" y="17.343"/><use xlink:href="#2"/><use xlink:href="#4" y="2.171"/><use xlink:href="#5" y="4.342"/><use xlink:href="#6" y="6.513"/><use xlink:href="#3" y="8.684"/><use xlink:href="#7" y="10.855"/><use xlink:href="#3" y="13.026"/><use xlink:href="#1" y="15.197"/><use xlink:href="#9" y="17.368"/></svg><svg x="4320"><use xlink:href="#a"/><use xlink:href="#b" x="15.996" y="17.343"/><use xlink:href="#2"/><use xlink:href="#4" y="2.171"/><use xlink:href="#5" y="4.342"/><use xlink:href="#6" y="6.513"/><use xlink:href="#3" y="8.684"/><use xlink:href="#7" y="10.855"/><use xlink:href="#3" y="13.026"/><use xlink:href="#1" y="15.197"/><text y="19.038" class="k">➜</text><text x="3.006" y="19.038" class="g">Documents</text><text x="13.026" y="19.038" class="h">cle</text></svg><svg x="4400"><use xlink:href="#a"/><use xlink:href="#b" x="16.996" y="17.343"/><use xlink:href="#2"/><use xlink:href="#4" y="2.171"/><use xlink:href="#5" y="4.342"/><use xlink:href="#6" y="6.513"/><use xlink:href="#3" y="8.684"/><use xlink:href="#7" y="10.855"/><use xlink:href="#3" y="13.026"/><use xlink:href="#1" y="15.197"/><text y="19.038" class="k">➜</text><text x="3.006" y="19.038" class="g">Documents</text><text x="13.026" y="19.038" class="h">clea</text></svg><svg x="4480"><use xlink:href="#a"/><use xlink:href="#b" x="17.996" y="17.343"/><use xlink:href="#2"/><use xlink:href="#4" y="2.171"/><use xlink:href="#5" y="4.342"/><use xlink:href="#6" y="6.513"/><use xlink:href="#3" y="8.684"/><use xlink:href="#7" y="10.855"/><use xlink:href="#3" y="13.026"/><use xlink:href="#1" y="15.197"/><use xlink:href="#12" y="17.368"/></svg><svg x="4560"><use xlink:href="#a"/><use xlink:href="#b" x="17.996" y="17.343"/><use xlink:href="#2"/><use xlink:href="#4" y="2.171"/><use xlink:href="#5" y="4.342"/><use xlink:href="#6" y="6.513"/><use xlink:href="#3" y="8.684"/><use xlink:href="#7" y="10.855"/><use xlink:href="#3" y="13.026"/><use xlink:href="#1" y="15.197"/><use xlink:href="#12" y="17.368"/></svg><svg x="4640"><use xlink:href="#a"/><use xlink:href="#b" x="-.004" y="19.514"/><use xlink:href="#2"/><use xlink:href="#4" y="2.171"/><use xlink:href="#5" y="4.342"/><use xlink:href="#6" y="6.513"/><use xlink:href="#3" y="8.684"/><use xlink:href="#7" y="10.855"/><use xlink:href="#3" y="13.026"/><use xlink:href="#1" y="15.197"/><use xlink:href="#12" y="17.368"/></svg><svg x="4720"><use xlink:href="#a"/><use xlink:href="#b" x="-.004" y="19.514"/><use xlink:href="#2"/><use xlink:href="#4" y="2.171"/><use xlink:href="#5" y="4.342"/><use xlink:href="#6" y="6.513"/><use xlink:href="#3" y="8.684"/><use xlink:href="#7" y="10.855"/><use xlink:href="#3" y="13.026"/><use xlink:href="#1" y="15.197"/><use xlink:href="#12" y="17.368"/></svg><svg x="4800"><use xlink:href="#a"/><use xlink:href="#b" x="-.004" y="19.514"/><use xlink:href="#2"/><use xlink:href="#4" y="2.171"/><use xlink:href="#5" y="4.342"/><use xlink:href="#6" y="6.513"/><use xlink:href="#3" y="8.684"/><use xlink:href="#7" y="10.855"/><use xlink:href="#3" y="13.026"/><use xlink:href="#1" y="15.197"/><use xlink:href="#12" y="17.368"/></svg><svg x="4880"><use xlink:href="#a"/><use xlink:href="#b" x="-.004"/></svg><svg x="4960"><use xlink:href="#a"/><use xlink:href="#b" x="-.004"/></svg><svg x="5040"><use xlink:href="#a"/><use xlink:href="#b" x="-.004"/></svg><svg x="5120"><use xlink:href="#a"/><use xlink:href="#b" x="-.004"/></svg><svg x="5200"><use xlink:href="#a"/><use xlink:href="#b" x="12.996"/><use xlink:href="#1"/></svg><svg x="5280"><use xlink:href="#a"/><use xlink:href="#b" x="12.996"/><use xlink:href="#1"/></svg><svg x="5360"><use xlink:href="#a"/><use xlink:href="#b" x="12.996"/><use xlink:href="#1"/></svg><svg x="5440"><use xlink:href="#a"/><use xlink:href="#b" x="-.004" y="2.146"/><use xlink:href="#1"/></svg></svg></g></g></svg></svg>